# This file uses centimeters as units for non-parametric coordinates.

mtllib Moon.mtl
g default
v -1.712258 0.968641 -0.300536
v -1.692524 1.004057 -0.332244
v -1.651331 0.982135 -0.332244
v -1.673260 0.946506 -0.300537
v 0.947531 1.220706 -0.300521
v 0.895626 1.248291 -0.332244
v 0.951689 1.266963 -0.332244
v 0.981501 1.250060 -0.300475
v 1.197491 2.093141 -0.302930
v 1.154396 2.071496 -0.332244
v 1.164767 2.118592 -0.302930
v 0.342487 1.669901 -0.300028
v 0.377931 1.649991 -0.332244
v 0.330922 1.626740 -0.332244
v 0.296262 1.662343 -0.298222
v -1.122907 1.886718 -0.302099
v -1.146071 1.858812 -0.332244
v -1.189992 1.876222 -0.332244
v -1.186015 1.924845 -0.332244
v -1.153139 1.921379 -0.302289
v -1.173279 3.243224 -0.300267
v -1.204391 3.248805 -0.332244
v -1.210200 3.295634 -0.332244
v -1.165196 3.310649 -0.332244
v -1.150333 3.282161 -0.300305
v 0.278406 4.043853 -0.300398
v 0.271818 4.078769 -0.332244
v 0.317638 4.086132 -0.332244
v 0.323766 4.037017 -0.299223
v 0.833199 3.550136 -0.310995
v 0.694179 3.740670 -0.332244
v 0.856297 3.569359 -0.310995
v 0.140101 4.662170 -0.300652
v 0.197421 4.514580 -0.332244
v 0.111448 4.646582 -0.332244
v 0.097866 4.676979 -0.300541
v -1.493276 4.161113 -0.300021
v -1.482963 4.130315 -0.332244
v -1.515591 4.086834 -0.332244
v -1.528306 4.132056 -0.300102
v -1.971664 3.317387 -0.299888
v -1.933852 3.318595 -0.332244
v -1.955760 3.273382 -0.332244
v -1.988899 3.274888 -0.299744
v -2.280505 2.232056 -0.299978
v -2.249631 2.221993 -0.332244
v -2.232753 2.169397 -0.332244
v -2.276856 2.186638 -0.300072
v -1.955797 3.273415 0.224304
v -1.933892 3.318577 0.224304
v -1.971648 3.317415 0.191903
v -1.988893 3.274907 0.191831
v -1.173276 3.243030 0.192093
v -1.150333 3.282161 0.192365
v -1.165474 3.309307 0.224304
v -1.210219 3.295648 0.224304
v -1.204391 3.248805 0.224304
v -1.493195 4.161139 0.191970
v -1.528306 4.132056 0.192162
v -1.515595 4.087057 0.224304
v -1.482963 4.130315 0.224304
v 0.317497 4.085854 0.224304
v 0.272084 4.078582 0.224304
v 0.278175 4.043730 0.192158
v 0.323584 4.037190 0.191571
v 0.140310 4.661853 0.192285
v 0.097866 4.676979 0.192602
v 0.111611 4.647065 0.224304
v 0.197421 4.514580 0.224304
v 0.694179 3.740670 0.224304
v 0.808027 3.574193 0.197457
v 0.837211 3.598481 0.197457
v -2.232900 2.169504 0.224304
v -2.249475 2.222049 0.224304
v -2.280486 2.232122 0.191949
v -2.276812 2.186545 0.191996
v -1.122379 1.886635 0.193625
v -1.153139 1.921379 0.194349
v -1.184616 1.923442 0.224304
v -1.190088 1.876184 0.224304
v -1.146071 1.858812 0.224304
v -1.651855 0.981726 0.224304
v -1.692436 1.004710 0.224304
v -1.712392 0.968932 0.192227
v -1.672941 0.946540 0.192228
v 0.330898 1.626819 0.224304
v 0.376561 1.650194 0.224304
v 0.342563 1.669942 0.191973
v 0.296843 1.662251 0.191070
v 0.947221 1.220674 0.192220
v 0.981501 1.250060 0.192535
v 0.951931 1.266508 0.224304
v 0.895626 1.248291 0.224304
v 1.154396 2.071496 0.224304
v 1.196802 2.090451 0.193424
v 1.162330 2.117262 0.193424
vt 0.375000 0.026916
vt 0.378876 0.029276
vt 0.380764 0.028455
vt 0.512013 0.005091
vt 0.515426 0.004711
vt 0.588702 0.054717
vt 0.541817 0.068245
vt 0.538217 0.067877
vt 0.478587 0.087334
vt 0.476097 0.087806
vt 0.378872 0.076729
vt 0.477404 0.090579
vt 0.457058 0.165709
vt 0.454434 0.164989
vt 0.457390 0.167526
vt 0.502427 0.208841
vt 0.501853 0.212199
vt 0.527263 0.236871
vt 0.449933 0.215011
vt 0.433755 0.212435
vt 0.378918 0.133462
vt 0.378834 0.132227
vt 0.378817 0.106099
vt 0.378478 0.104546
vt 0.378158 0.079180
vt 0.375000 0.076515
vt 0.375000 0.101849
vt 0.375000 0.077949
vt 0.378473 0.104543
vt 0.378813 0.106096
vt 0.375000 0.130738
vt 0.457058 0.165709
vt 0.480391 0.091260
vt 0.460379 0.168869
vt 0.505949 0.209104
vt 0.457463 0.167549
vt 0.378821 0.132224
vt 0.378918 0.133462
vt 0.429745 0.212407
vt 0.508242 0.211128
vt 0.543486 0.242246
vt 0.501899 0.212177
vt 0.433717 0.212451
vt 0.449934 0.215011
vt 0.527263 0.236871
vt 0.538425 0.245874
vt 0.375000 0.076511
vt 0.375000 0.026928
vt 0.378861 0.076731
vt 0.477548 0.090536
vt 0.540823 0.072532
vt 0.476085 0.087802
vt 0.378918 0.029312
vt 0.376419 0.025629
vt 0.510496 0.000266
vt 0.538226 0.067888
vt 0.512014 0.005091
vt 0.541818 0.068342
vt 0.592825 0.057775
vt 0.514318 0.001641
vt 0.590905 0.053665
vt 0.588702 0.054717
vt 0.454432 0.164988
vt 0.502464 0.208849
vt 0.378171 0.079188
vt 0.515389 0.004662
vt 0.380703 0.028428
vt 0.478587 0.087334
vt 0.375000 0.130738
vt 0.375000 0.103046
vt 0.375000 0.103047
vt 0.460379 0.168869
vt 0.505957 0.209111
vt 0.429745 0.212407
vt 0.375791 0.132639
vt 0.375794 0.132643
vt 0.508255 0.211140
vt 0.545318 0.243863
vt 0.541312 0.246734
vt 0.432984 0.214447
vt 0.433016 0.214456
vt 0.480391 0.091260
vt 0.460042 0.166700
vt 0.460045 0.166689
vt 0.375000 0.101848
vt 0.375000 0.077947
vt 0.514318 0.001641
vt 0.591150 0.053831
vt 0.592973 0.057733
vt 0.543118 0.071881
vt 0.543123 0.071880
vt 0.376402 0.025632
vt 0.510512 0.000263
vt 0.540799 0.072539
vt 0.482084 0.089201
vt 0.482106 0.089195
vt 0.378022 0.027715
vt 0.512918 0.002451
vt 0.541837 0.072244
vt 0.480798 0.089753
vt 0.458619 0.167421
vt 0.458393 0.167673
vt 0.506739 0.209801
vt 0.433798 0.213589
vt 0.376911 0.132298
vt 0.375590 0.102818
vt 0.377368 0.077682
vn -0.493629 -0.869672 0.000379
vn -0.493629 -0.869672 0.000379
vn -0.493629 -0.869672 0.000379
vn -0.493629 -0.869672 0.000379
vn -0.633188 -0.293385 -0.716239
vn -0.633188 -0.293385 -0.716238
vn -0.633188 -0.293385 -0.716239
vn -0.633188 -0.293385 -0.716238
vn -0.000006 0.000000 -1.000000
vn -0.000006 0.000000 -1.000000
vn -0.000006 0.000000 -1.000000
vn -0.000006 0.000000 -1.000000
vn 0.072070 -0.689232 -0.720948
vn 0.072070 -0.689232 -0.720947
vn 0.072070 -0.689232 -0.720948
vn 0.072070 -0.689232 -0.720948
vn 0.652322 -0.757942 0.000180
vn 0.652322 -0.757942 0.000180
vn 0.652322 -0.757942 0.000180
vn 0.652322 -0.757942 0.000180
vn 0.000002 0.000000 -1.000000
vn 0.000002 0.000000 -1.000000
vn 0.000002 0.000000 -1.000000
vn 0.000002 0.000000 -1.000000
vn 0.639784 -0.163703 -0.750918
vn 0.639784 -0.163703 -0.750918
vn 0.639784 -0.163703 -0.750918
vn 0.639784 -0.163703 -0.750918
vn 0.613930 0.789344 0.005130
vn 0.613930 0.789344 0.005130
vn 0.613930 0.789344 0.005130
vn 0.613930 0.789344 0.005130
vn -0.314605 0.575477 -0.754884
vn -0.314605 0.575477 -0.754884
vn -0.314605 0.575477 -0.754884
vn -0.314605 0.575477 -0.754884
vn -0.163621 0.986523 0.000160
vn -0.163621 0.986523 0.000160
vn -0.163621 0.986523 0.000160
vn -0.163621 0.986523 0.000160
vn 0.113804 0.716241 -0.688511
vn 0.113804 0.716241 -0.688512
vn 0.113804 0.716241 -0.688511
vn 0.113804 0.716241 -0.688511
vn 0.751160 0.660120 -0.000344
vn 0.751160 0.660120 -0.000344
vn 0.751160 0.660120 -0.000344
vn 0.751160 0.660120 -0.000344
vn -0.000001 0.000000 -1.000000
vn -0.000001 0.000000 -1.000000
vn -0.000001 0.000000 -1.000000
vn -0.000001 0.000000 -1.000000
vn 0.696207 0.010683 -0.717761
vn 0.696207 0.010683 -0.717761
vn 0.696207 0.010683 -0.717762
vn 0.696207 0.010683 -0.717762
vn 0.862095 -0.506748 -0.000102
vn 0.862094 -0.506748 -0.000102
vn 0.862095 -0.506748 -0.000102
vn 0.862095 -0.506747 -0.000102
vn 0.000000 0.000000 -1.000000
vn 0.000000 0.000000 -1.000000
vn 0.000000 0.000000 -1.000000
vn 0.000000 0.000000 -1.000000
vn 0.000000 0.000000 -1.000000
vn 0.000000 0.000000 -1.000000
vn 0.000000 0.000000 -1.000000
vn 0.000000 0.000000 -1.000000
vn 0.327156 -0.612896 -0.719254
vn 0.327156 -0.612896 -0.719254
vn 0.327156 -0.612896 -0.719254
vn 0.327156 -0.612896 -0.719254
vn -0.145788 -0.989316 -0.000010
vn -0.145788 -0.989316 -0.000010
vn -0.145788 -0.989316 -0.000010
vn -0.145788 -0.989316 -0.000010
vn 0.000000 0.000000 -1.000000
vn 0.000000 0.000000 -1.000000
vn 0.000000 0.000000 -1.000000
vn 0.000000 0.000000 -1.000000
vn -0.418409 -0.434086 -0.797812
vn -0.418409 -0.434086 -0.797812
vn -0.418409 -0.434086 -0.797812
vn -0.418409 -0.434086 -0.797812
vn 0.638204 -0.766869 0.067879
vn 0.638204 -0.766869 0.067879
vn 0.638204 -0.766869 0.067879
vn 0.638204 -0.766869 0.067879
vn 0.483268 0.318537 -0.815467
vn 0.483268 0.318537 -0.815467
vn 0.483268 0.318537 -0.815467
vn 0.483268 0.318537 -0.815467
vn 0.333300 0.942821 0.000233
vn 0.333300 0.942821 0.000233
vn 0.333300 0.942821 0.000233
vn 0.333300 0.942821 0.000233
vn -0.215256 0.663995 -0.716084
vn -0.215256 0.663995 -0.716084
vn -0.215256 0.663995 -0.716084
vn -0.215256 0.663995 -0.716084
vn -0.638161 0.769903 0.000032
vn -0.638161 0.769903 0.000032
vn -0.638161 0.769903 0.000032
vn -0.638161 0.769903 0.000032
vn -0.616682 0.335582 -0.712101
vn -0.616682 0.335582 -0.712101
vn -0.616682 0.335582 -0.712101
vn -0.616682 0.335582 -0.712101
vn -0.926670 0.375876 0.000001
vn -0.926670 0.375876 0.000001
vn -0.926670 0.375876 0.000001
vn -0.926670 0.375876 0.000001
vn -0.680986 0.190461 -0.707094
vn -0.680986 0.190461 -0.707094
vn -0.680986 0.190461 -0.707094
vn -0.680987 0.190461 -0.707094
vn -0.996778 -0.080215 0.000061
vn -0.996778 -0.080215 0.000061
vn -0.996778 -0.080215 0.000061
vn -0.996778 -0.080215 0.000061
vn -0.680864 0.190326 0.707248
vn -0.680864 0.190326 0.707248
vn -0.680865 0.190326 0.707248
vn -0.680864 0.190326 0.707248
vn -0.000001 0.000000 1.000000
vn -0.000001 0.000000 1.000000
vn -0.000001 0.000000 1.000000
vn -0.000001 0.000000 1.000000
vn -0.617581 0.336014 0.711118
vn -0.617581 0.336014 0.711118
vn -0.617581 0.336014 0.711118
vn -0.617581 0.336014 0.711118
vn 0.705357 0.011240 0.708763
vn 0.705357 0.011240 0.708763
vn 0.705357 0.011240 0.708763
vn 0.705357 0.011240 0.708763
vn 0.331613 -0.620760 0.710415
vn 0.331613 -0.620760 0.710415
vn 0.331614 -0.620760 0.710415
vn 0.331613 -0.620760 0.710415
vn -0.000007 0.000000 1.000000
vn -0.000007 0.000000 1.000000
vn -0.000007 0.000000 1.000000
vn -0.000007 0.000000 1.000000
vn -0.216237 0.666677 0.713290
vn -0.216237 0.666677 0.713290
vn -0.216237 0.666677 0.713290
vn -0.216237 0.666677 0.713290
vn -0.434262 -0.457056 0.776219
vn -0.434262 -0.457056 0.776219
vn -0.434262 -0.457056 0.776219
vn -0.434262 -0.457056 0.776219
vn -0.000006 0.000000 1.000000
vn -0.000006 0.000000 1.000000
vn -0.000006 0.000000 1.000000
vn -0.000006 0.000000 1.000000
vn 0.518052 0.338782 0.785398
vn 0.518052 0.338782 0.785398
vn 0.518052 0.338782 0.785397
vn 0.518052 0.338782 0.785398
vn -0.634383 -0.294135 0.714873
vn -0.634383 -0.294135 0.714873
vn -0.634383 -0.294135 0.714873
vn -0.634383 -0.294135 0.714873
vn 0.000000 0.000000 1.000000
vn 0.000000 0.000000 1.000000
vn 0.000000 0.000000 1.000000
vn 0.000000 0.000000 1.000000
vn 0.113325 0.715308 0.689560
vn 0.113325 0.715308 0.689560
vn 0.113325 0.715308 0.689560
vn 0.113325 0.715308 0.689560
vn 0.000006 0.000000 1.000000
vn 0.000006 0.000000 1.000000
vn 0.000006 0.000000 1.000000
vn 0.000006 0.000000 1.000000
vn 0.072743 -0.695223 0.715104
vn 0.072743 -0.695223 0.715104
vn 0.072743 -0.695223 0.715104
vn 0.072743 -0.695223 0.715104
vn 0.000000 0.000000 1.000000
vn 0.000000 0.000000 1.000000
vn 0.000000 0.000000 1.000000
vn 0.000000 0.000000 1.000000
vn -0.320654 0.588517 0.742178
vn -0.320654 0.588517 0.742178
vn -0.320654 0.588517 0.742178
vn -0.320654 0.588517 0.742178
vn 0.650757 -0.165628 0.741001
vn 0.650757 -0.165628 0.741001
vn 0.650757 -0.165628 0.741001
vn 0.650757 -0.165628 0.741001
vn 0.000000 0.000000 1.000000
vn 0.000000 0.000000 1.000000
vn 0.000000 0.000000 1.000000
vn 0.000000 0.000000 1.000000
vn 0.000000 0.000000 1.000000
vn 0.000000 0.000000 1.000000
vn 0.000000 0.000000 1.000000
vn 0.000000 0.000000 1.000000
vn 0.000000 0.000000 1.000000
vn 0.000000 0.000000 1.000000
vn 0.000000 0.000000 1.000000
vn 0.000000 0.000000 1.000000
vn 0.000000 0.000000 1.000000
vn 0.000000 0.000000 1.000000
vn 0.000000 0.000000 1.000000
vn 0.000000 0.000000 1.000000
vn 0.000000 0.000000 1.000000
vn 0.000000 0.000000 1.000000
vn 0.000000 0.000000 1.000000
vn 0.000000 0.000000 1.000000
vn 0.000000 0.000000 1.000000
vn 0.000000 0.000000 1.000000
vn 0.000000 0.000000 1.000000
vn 0.000000 0.000000 1.000000
vn 0.000000 0.000000 -1.000000
vn 0.000000 0.000000 -1.000000
vn 0.000000 0.000000 -1.000000
vn 0.000000 0.000000 -1.000000
vn 0.000000 0.000000 -1.000000
vn 0.000000 0.000000 -1.000000
vn 0.000000 0.000000 -1.000000
vn -0.000002 0.000000 -1.000000
vn -0.000002 0.000000 -1.000000
vn -0.000002 0.000000 -1.000000
vn -0.000000 0.000000 -1.000000
vn -0.000000 0.000000 -1.000000
vn -0.000000 0.000000 -1.000000
vn -0.000000 0.000000 -1.000000
vn 0.000000 0.000000 -1.000000
vn 0.000000 0.000000 -1.000000
vn 0.000000 0.000000 -1.000000
vn 0.000000 0.000000 -1.000000
vn 0.000000 0.000000 -1.000000
vn 0.000000 0.000000 -1.000000
vn -0.000000 0.000000 -1.000000
vn -0.000000 0.000000 -1.000000
vn -0.000000 0.000000 -1.000000
vn -0.000000 0.000000 -1.000000
vn -0.878352 0.478015 -0.000000
vn -0.878352 0.478015 -0.000000
vn -0.878352 0.478015 -0.000000
vn -0.878352 0.478015 -0.000000
vn 0.470443 -0.882430 0.000000
vn 0.470443 -0.882430 0.000000
vn 0.470443 -0.882430 0.000000
vn 0.470443 -0.882430 0.000000
vn -0.308407 0.951254 0.000000
vn -0.308407 0.951254 0.000000
vn -0.308407 0.951254 0.000000
vn -0.308407 0.951254 0.000000
vn -0.690924 -0.722927 -0.000000
vn -0.690924 -0.722927 -0.000000
vn -0.690924 -0.722927 -0.000000
vn -0.690924 -0.722927 -0.000000
vn 0.836385 0.548142 -0.000001
vn 0.836385 0.548142 -0.000001
vn 0.836385 0.548142 -0.000001
vn 0.836385 0.548142 -0.000001
vn 0.999884 0.015235 0.000000
vn 0.999884 0.015235 0.000000
vn 0.999884 0.015235 0.000000
vn 0.999884 0.015235 0.000000
vn -0.963057 0.269298 0.000000
vn -0.963057 0.269298 0.000000
vn -0.963057 0.269298 0.000000
vn -0.963057 0.269298 0.000000
vn -0.907265 -0.420560 0.000000
vn -0.907265 -0.420560 0.000000
vn -0.907265 -0.420560 0.000000
vn -0.907265 -0.420560 0.000000
vn 0.968715 -0.248176 -0.000000
vn 0.968715 -0.248176 -0.000000
vn 0.968715 -0.248176 -0.000000
vn 0.968715 -0.248176 -0.000000
vn -0.478996 0.877817 -0.000000
vn -0.478996 0.877817 -0.000000
vn -0.478996 0.877817 -0.000000
vn -0.478996 0.877817 -0.000000
vn 0.104057 -0.994571 0.000000
vn 0.104057 -0.994571 0.000000
vn 0.104057 -0.994571 0.000000
vn 0.104057 -0.994571 0.000000
vn 0.156164 0.987731 -0.000000
vn 0.156164 0.987731 -0.000000
vn 0.156164 0.987731 -0.000000
vn 0.156164 0.987731 -0.000000
vn -0.293851 -0.534817 -0.792226
vn -0.293851 -0.534817 -0.792226
vn -0.293851 -0.534817 -0.792226
vn -0.293851 -0.534817 -0.792226
vn 0.298017 -0.557948 -0.774519
vn 0.298017 -0.557948 -0.774519
vn 0.298017 -0.557948 -0.774519
vn 0.298017 -0.557948 -0.774519
vn 0.342854 0.440822 -0.829534
vn 0.342854 0.440822 -0.829534
vn 0.342854 0.440822 -0.829534
vn -0.219675 0.620674 -0.752666
vn -0.219675 0.620674 -0.752666
vn -0.219675 0.620674 -0.752666
vn -0.219675 0.620674 -0.752666
vn 0.436108 0.302942 -0.847370
vn 0.436108 0.302942 -0.847370
vn 0.436108 0.302942 -0.847370
vn 0.436108 0.302942 -0.847370
vn 0.436108 0.302942 -0.847370
vn 0.478217 -0.295056 -0.827194
vn 0.478217 -0.295056 -0.827194
vn 0.478217 -0.295056 -0.827194
vn 0.478217 -0.295056 -0.827194
vn 0.478217 -0.295056 -0.827194
vn 0.013738 -0.609696 -0.792516
vn 0.013738 -0.609696 -0.792516
vn 0.013738 -0.609696 -0.792516
vn 0.013738 -0.609696 -0.792516
vn 0.057506 -0.069108 -0.995950
vn 0.057506 -0.069108 -0.995950
vn 0.057506 -0.069108 -0.995950
vn 0.530320 0.463656 -0.709778
vn 0.530320 0.463656 -0.709778
vn 0.530320 0.463656 -0.709777
vn 0.530319 0.463656 -0.709778
vn -0.499473 0.466690 -0.729882
vn -0.499473 0.466690 -0.729882
vn -0.499473 0.466690 -0.729882
vn -0.499473 0.466690 -0.729882
vn -0.645658 0.286976 -0.707652
vn -0.645658 0.286976 -0.707652
vn -0.645658 0.286976 -0.707652
vn -0.645658 0.286976 -0.707652
vn -0.674264 -0.140518 -0.724999
vn -0.674264 -0.140518 -0.724998
vn -0.674264 -0.140518 -0.724999
vn -0.674264 -0.140518 -0.724999
vn -0.645984 0.287894 0.706980
vn -0.645984 0.287894 0.706980
vn -0.645984 0.287894 0.706980
vn -0.645984 0.287894 0.706980
vn 0.479064 -0.298803 0.825357
vn 0.479064 -0.298803 0.825357
vn 0.479064 -0.298803 0.825357
vn 0.479064 -0.298803 0.825357
vn 0.479064 -0.298803 0.825357
vn -0.498718 0.468956 0.728945
vn -0.498718 0.468956 0.728945
vn -0.498718 0.468956 0.728945
vn -0.498718 0.468956 0.728945
vn 0.010038 -0.612544 0.790373
vn 0.010038 -0.612544 0.790373
vn 0.010038 -0.612544 0.790373
vn 0.010038 -0.612544 0.790373
vn 0.539918 0.467607 0.699880
vn 0.539918 0.467607 0.699880
vn 0.539918 0.467607 0.699880
vn 0.539918 0.467607 0.699880
vn 0.084775 -0.101870 0.991179
vn 0.084775 -0.101870 0.991179
vn 0.084775 -0.101870 0.991179
vn -0.675385 -0.139022 0.724243
vn -0.675385 -0.139022 0.724243
vn -0.675385 -0.139022 0.724243
vn -0.675385 -0.139022 0.724243
vn 0.439840 0.302900 0.845454
vn 0.439840 0.302900 0.845454
vn 0.439840 0.302900 0.845454
vn 0.439840 0.302900 0.845454
vn 0.439840 0.302900 0.845454
vn -0.303986 -0.536126 0.787503
vn -0.303986 -0.536126 0.787503
vn -0.303986 -0.536126 0.787503
vn -0.303986 -0.536126 0.787503
vn -0.219059 0.622542 0.751302
vn -0.219059 0.622542 0.751302
vn -0.219059 0.622542 0.751302
vn -0.219059 0.622542 0.751302
vn 0.295814 -0.568021 0.768014
vn 0.295814 -0.568021 0.768014
vn 0.295814 -0.568021 0.768014
vn 0.295814 -0.568021 0.768014
vn 0.369372 0.474921 0.798758
vn 0.369372 0.474921 0.798758
vn 0.369372 0.474921 0.798758
s off
g pCube1
usemtl initialShadingGroup
f 1/1/1 4/92/2 85/54/3 84/48/4
f 2/2/5 1/1/6 48/26/7 47/11/8
f 3/3/9 2/2/10 18/10/11 17/9/12
f 4/92/13 3/3/14 6/4/15 5/93/16
f 5/93/17 8/87/18 91/60/19 90/55/20
f 7/5/21 6/4/22 14/8/23 13/7/24
f 8/87/25 7/5/26 10/6/27 9/88/28
f 9/88/29 11/89/30 96/59/31 95/61/32
f 11/89/33 10/6/34 13/7/35 12/90/36
f 12/90/37 15/94/38 89/51/39 88/91/40
f 15/94/41 14/8/42 17/9/43 16/95/44
f 16/95/45 20/82/46 78/33/47 77/96/48
f 19/12/49 18/10/50 47/11/51 46/25/52
f 20/82/53 19/12/54 22/13/55 21/83/56
f 21/83/57 25/72/58 54/34/59 53/84/60
f 23/14/61 22/13/62 43/24/63 42/23/64
f 24/15/65 23/14/66 39/22/67 38/21/68
f 25/72/69 24/15/70 27/16/71 26/73/72
f 26/73/73 29/77/74 65/40/75 64/35/76
f 28/17/77 27/16/78 35/20/79 34/19/80
f 29/77/81 28/17/82 31/18/83 30/78/84
f 30/78/85 32/79/86 72/46/87 71/41/88
f 32/79/89 31/18/90 34/19/91 33/80/92
f 33/80/93 36/74/94 67/39/95 66/81/96
f 36/74/97 35/20/98 38/21/99 37/75/100
f 37/75/101 40/69/102 59/31/103 58/76/104
f 40/69/105 39/22/106 42/23/107 41/70/108
f 41/70/109 44/85/110 52/27/111 51/71/112
f 44/85/113 43/24/114 46/25/115 45/86/116
f 45/86/117 48/26/118 76/47/119 75/28/120
f 49/29/121 52/27/122 75/28/123 74/65/124
f 50/30/125 49/29/126 57/32/127 56/63/128
f 51/71/129 50/30/130 60/37/131 59/31/132
f 53/84/133 57/32/134 79/50/135 78/33/136
f 55/36/137 54/34/138 64/35/139 63/64/140
f 56/63/141 55/36/142 61/38/143 60/37/144
f 58/76/145 61/38/146 68/43/147 67/39/148
f 62/42/149 65/40/150 71/41/151 70/45/152
f 63/64/153 62/42/154 69/44/155 68/43/156
f 66/81/157 69/44/158 70/45/159 72/46/160
f 73/49/161 76/47/162 84/48/163 83/53/164
f 74/65/165 73/49/166 80/52/167 79/50/168
f 77/96/169 81/68/170 86/56/171 89/51/172
f 81/68/173 80/52/174 83/53/175 82/67/176
f 82/67/177 85/54/178 90/55/179 93/57/180
f 87/58/181 86/56/182 93/57/183 92/66/184
f 88/91/185 87/58/186 94/62/187 96/59/188
f 92/66/189 91/60/190 95/61/191 94/62/192
f 50/30/193 56/63/194 60/37/195
f 61/38/196 55/36/197 63/64/198 68/43/199
f 69/44/200 62/42/201 70/45/202
f 74/65/203 79/50/204 57/32/205 49/29/206
f 83/53/207 80/52/208 73/49/209
f 87/58/210 92/66/211 94/62/212
f 82/67/213 93/57/214 86/56/215 81/68/216
f 42/23/217 39/22/218 23/14/219
f 38/21/220 35/20/221 27/16/222 24/15/223
f 34/19/224 31/18/225 28/17/226
f 46/25/227 43/24/228 22/13/229 19/12/230
f 2/2/231 47/11/232 18/10/233
f 13/7/234 10/6/235 7/5/236
f 3/3/237 17/9/238 14/8/239 6/4/240
f 40/69/241 41/70/242 51/71/243 59/31/244
f 25/72/245 26/73/246 64/35/247 54/34/248
f 36/74/249 37/75/250 58/76/251 67/39/252
f 29/77/253 30/78/254 71/41/255 65/40/256
f 32/79/257 33/80/258 66/81/259 72/46/260
f 20/82/261 21/83/262 53/84/263 78/33/264
f 44/85/265 45/86/266 75/28/267 52/27/268
f 48/26/269 1/1/270 84/48/271 76/47/272
f 8/87/273 9/88/274 95/61/275 91/60/276
f 11/89/277 12/90/278 88/91/279 96/59/280
f 4/92/281 5/93/282 90/55/283 85/54/284
f 15/94/285 16/95/286 77/96/287 89/51/288
f 1/1/289 2/2/290 3/3/291 4/97/292
f 5/98/293 6/4/294 7/5/295 8/87/296
f 9/88/297 10/6/298 11/89/299
f 12/90/300 13/7/301 14/8/302 15/99/303
f 16/100/304 17/9/305 18/10/306 19/12/307 20/82/308
f 21/101/309 22/13/310 23/14/311 24/15/312 25/102/313
f 26/73/314 27/16/315 28/17/316 29/103/317
f 30/78/318 31/18/319 32/79/320
f 33/104/321 34/19/322 35/20/323 36/74/324
f 37/105/325 38/21/326 39/22/327 40/69/328
f 41/70/329 42/23/330 43/24/331 44/106/332
f 45/86/333 46/25/334 47/11/335 48/107/336
f 49/29/337 50/30/338 51/71/339 52/27/340
f 53/84/341 54/34/342 55/36/343 56/63/344 57/32/345
f 58/76/346 59/31/347 60/37/348 61/38/349
f 62/42/350 63/64/351 64/35/352 65/40/353
f 66/81/354 67/39/355 68/43/356 69/44/357
f 70/45/358 71/41/359 72/46/360
f 73/49/361 74/65/362 75/28/363 76/47/364
f 77/96/365 78/33/366 79/50/367 80/52/368 81/68/369
f 82/67/370 83/53/371 84/48/372 85/54/373
f 86/56/374 87/58/375 88/91/376 89/51/377
f 90/55/378 91/60/379 92/66/380 93/57/381
f 94/62/382 95/61/383 96/59/384
